<?xml version="1.0" encoding="UTF-8"?> <!-- Generator: Adobe Illustrator 25.2.1, SVG Export Plug-In . SVG Version: 6.00 Build 0) --> <svg xmlns="http://www.w3.org/2000/svg" xmlns:xlink="http://www.w3.org/1999/xlink" version="1.1" id="Layer_1" x="0px" y="0px" viewBox="0 0 926.17 232.95" style="enable-background:new 0 0 926.17 232.95;" xml:space="preserve"> <style type="text/css"> .st0{fill:url(#SVGID_1_);} .st1{fill:url(#SVGID_2_);} .st2{fill:url(#SVGID_3_);} .st3{fill:none;stroke:#000214;stroke-width:14.8001;stroke-linecap:round;stroke-linejoin:round;stroke-miterlimit:10;} .st4{fill:#FFFFFF;} .st5{fill:url(#SVGID_4_);} .st6{fill:url(#SVGID_5_);} .st7{fill:url(#SVGID_6_);} .st8{fill:#0A0C56;} </style> <g> <g> <linearGradient id="SVGID_1_" gradientUnits="userSpaceOnUse" x1="182.5767" y1="33.2933" x2="182.5767" y2="145.2055"> <stop offset="0.3607" style="stop-color:#807EFF"></stop> <stop offset="0.9989" style="stop-color:#837CFF;stop-opacity:0"></stop> </linearGradient> <path class="st0" d="M182.58,200.64c-7,0-12.68-5.68-12.68-12.68V44.99c0-7,5.68-12.68,12.68-12.68s12.68,5.68,12.68,12.68v142.98 C195.25,194.97,189.58,200.64,182.58,200.64z"></path> <linearGradient id="SVGID_2_" gradientUnits="userSpaceOnUse" x1="-1194.2761" y1="2245.3743" x2="-1194.2761" y2="2357.2866" gradientTransform="matrix(-1 0 0 -1 -1159.3883 2445.0332)"> <stop offset="0.3607" style="stop-color:#00D3FF"></stop> <stop offset="0.9989" style="stop-color:#00D6FF;stop-opacity:0"></stop> </linearGradient> <path class="st1" d="M34.89,32.31c7,0,12.68,5.68,12.68,12.68v142.98c0,7-5.68,12.68-12.68,12.68s-12.68-5.68-12.68-12.68V44.99 C22.21,37.99,27.89,32.31,34.89,32.31z"></path> <linearGradient id="SVGID_3_" gradientUnits="userSpaceOnUse" x1="23.6342" y1="116.2423" x2="194.6057" y2="116.712"> <stop offset="0" style="stop-color:#00D8FD"></stop> <stop offset="1" style="stop-color:#9373FF"></stop> </linearGradient> <path class="st2" d="M182.58,200.64h-47.44c-7,0-12.68-5.68-12.68-12.68v-28.3c0-6.35-2.38-12.4-6.71-17.04l-32.58-35.02 c-8.71-9.34-13.51-21.53-13.51-34.32V57.66H47.57v17.93c0,18.76,7.11,36.59,20.03,50.19L91.53,151c2.24,2.36,3.48,5.48,3.48,8.73 v28.23c0,7-5.68,12.68-12.68,12.68H34.89c-7,0-12.68-5.68-12.68-12.68c0-7,5.68-12.68,12.68-12.68h34.77v-10.5L49.2,143.24 C31.8,124.9,22.21,100.88,22.21,75.59v-30.6c0-7,5.68-12.68,12.68-12.68h47.44c7,0,12.68,5.68,12.68,12.68v28.3 c0,6.34,2.38,12.4,6.71,17.04l32.58,35.02c8.71,9.34,13.51,21.53,13.51,34.32v15.62h22.09v-17.93c0-18.76-7.11-36.59-20.03-50.19 l-23.94-25.22c-2.24-2.36-3.48-5.48-3.48-8.73V44.99c0-7,5.68-12.68,12.68-12.68h47.44c7,0,12.68,5.68,12.68,12.68 s-5.68,12.68-12.68,12.68h-34.77v10.5l20.45,21.55c17.41,18.34,26.99,42.36,26.99,67.65v30.6 C195.25,194.97,189.58,200.64,182.58,200.64z"></path> </g> <g> <path class="st4" d="M324.06,162.52h-17.27v-36.54h-38.4v36.54h-17.15V74.42h17.15v35.42h38.4V74.42h17.27V162.52z"></path> <path class="st4" d="M339.56,108.71c6.09-6.13,13.73-9.2,22.93-9.2c9.2,0,16.84,3.07,22.93,9.2c6.09,6.13,9.13,13.88,9.13,23.24 c0,9.36-3.04,17.11-9.13,23.24c-6.09,6.13-13.73,9.2-22.93,9.2c-9.2,0-16.84-3.06-22.93-9.2c-6.09-6.13-9.13-13.88-9.13-23.24 C330.43,122.59,333.47,114.85,339.56,108.71z M351.49,144.75c3.02,3.07,6.69,4.6,11,4.6c4.31,0,7.97-1.53,11-4.6 c3.02-3.06,4.54-7.33,4.54-12.8s-1.51-9.73-4.54-12.8c-3.02-3.06-6.69-4.6-11-4.6c-4.31,0-7.97,1.53-11,4.6 c-3.02,3.07-4.54,7.33-4.54,12.8S348.47,141.69,351.49,144.75z"></path> <path class="st4" d="M433.02,162.52h-31.44V74.42h31.57c12.84,0,23.3,3.94,31.38,11.81c8.08,7.87,12.12,18.64,12.12,32.31 c0,13.59-4.06,24.32-12.18,32.19C456.34,158.59,445.86,162.52,433.02,162.52z M418.73,146.62h13.67c7.71,0,14.04-2.4,19.01-7.21 c4.97-4.8,7.46-11.76,7.46-20.88c0-9.11-2.49-16.09-7.46-20.94c-4.97-4.85-11.27-7.27-18.89-7.27h-13.79V146.62z"></path> <path class="st4" d="M491.11,108.71c6.09-6.13,13.73-9.2,22.93-9.2c9.2,0,16.84,3.07,22.93,9.2c6.09,6.13,9.13,13.88,9.13,23.24 c0,9.36-3.04,17.11-9.13,23.24c-6.09,6.13-13.73,9.2-22.93,9.2c-9.2,0-16.84-3.06-22.93-9.2c-6.09-6.13-9.13-13.88-9.13-23.24 C481.97,122.59,485.02,114.85,491.11,108.71z M503.04,144.75c3.02,3.07,6.69,4.6,11,4.6c4.31,0,7.97-1.53,11-4.6 c3.02-3.06,4.54-7.33,4.54-12.8s-1.51-9.73-4.54-12.8c-3.02-3.06-6.69-4.6-11-4.6c-4.31,0-7.97,1.53-11,4.6 c-3.02,3.07-4.54,7.33-4.54,12.8S500.01,141.69,503.04,144.75z"></path> <path class="st4" d="M561.45,108.71c6.09-6.13,13.73-9.2,22.93-9.2c9.2,0,16.84,3.07,22.93,9.2c6.09,6.13,9.13,13.88,9.13,23.24 c0,9.36-3.04,17.11-9.13,23.24c-6.09,6.13-13.73,9.2-22.93,9.2c-9.2,0-16.84-3.06-22.93-9.2c-6.09-6.13-9.13-13.88-9.13-23.24 C552.31,122.59,555.36,114.85,561.45,108.71z M573.38,144.75c3.02,3.07,6.69,4.6,11,4.6c4.31,0,7.97-1.53,11-4.6 c3.02-3.06,4.54-7.33,4.54-12.8s-1.51-9.73-4.54-12.8c-3.02-3.06-6.69-4.6-11-4.6c-4.31,0-7.97,1.53-11,4.6 c-3.02,3.07-4.54,7.33-4.54,12.8S570.35,141.69,573.38,144.75z"></path> <path class="st4" d="M620.43,81.37c0-2.82,0.99-5.24,2.98-7.27c1.99-2.03,4.39-3.04,7.21-3.04c2.82,0,5.22,0.99,7.21,2.98 c1.99,1.99,2.98,4.43,2.98,7.33c0,2.73-0.99,5.09-2.98,7.08c-1.99,1.99-4.39,2.98-7.21,2.98c-2.82,0-5.22-0.99-7.21-2.98 C621.42,86.47,620.43,84.11,620.43,81.37z M638.95,162.52h-16.53v-61.14h16.53V162.52z"></path> <path class="st4" d="M651.52,160.1c-2.24-2.19-3.36-4.87-3.36-8.02c0-3.15,1.12-5.82,3.36-8.02c2.24-2.19,4.89-3.29,7.95-3.29 c3.15,0,5.84,1.1,8.08,3.29c2.24,2.2,3.36,4.87,3.36,8.02c0,3.15-1.12,5.82-3.36,8.02c-2.24,2.2-4.93,3.29-8.08,3.29 C656.41,163.39,653.76,162.3,651.52,160.1z"></path> <path class="st4" d="M706.45,114.8c-4.39,0-8.08,1.53-11.06,4.6c-2.98,3.07-4.47,7.25-4.47,12.55c0,5.3,1.51,9.51,4.54,12.61 c3.02,3.11,6.73,4.66,11.12,4.66c3.89,0,7-1.02,9.32-3.05c2.32-2.03,3.89-4.45,4.72-7.27l14.54,4.85 c-1.49,5.64-4.72,10.48-9.69,14.54c-4.97,4.06-11.27,6.09-18.89,6.09c-9.11,0-16.76-3.08-22.93-9.26 c-6.17-6.17-9.26-13.9-9.26-23.18c0-9.36,3.04-17.11,9.13-23.24c6.09-6.13,13.61-9.2,22.56-9.2c7.79,0,14.17,2.01,19.14,6.03 c4.97,4.02,8.16,8.89,9.57,14.6L720,125.12C718.01,118.24,713.49,114.8,706.45,114.8z"></path> <path class="st4" d="M749.47,108.71c6.09-6.13,13.73-9.2,22.93-9.2c9.2,0,16.84,3.07,22.93,9.2c6.09,6.13,9.13,13.88,9.13,23.24 c0,9.36-3.04,17.11-9.13,23.24c-6.09,6.13-13.73,9.2-22.93,9.2c-9.2,0-16.84-3.06-22.93-9.2c-6.09-6.13-9.13-13.88-9.13-23.24 C740.34,122.59,743.39,114.85,749.47,108.71z M761.41,144.75c3.02,3.07,6.69,4.6,11,4.6c4.31,0,7.97-1.53,11-4.6 c3.02-3.06,4.54-7.33,4.54-12.8s-1.51-9.73-4.54-12.8c-3.02-3.06-6.69-4.6-11-4.6c-4.31,0-7.97,1.53-11,4.6 c-3.02,3.07-4.54,7.33-4.54,12.8S758.38,141.69,761.41,144.75z"></path> <path class="st4" d="M827.16,162.52h-16.53v-61.14h15.78v7.46c1.57-2.82,4.06-5.05,7.46-6.71c3.4-1.66,6.88-2.49,10.44-2.49 c8.86,0,14.91,3.4,18.14,10.19c4.39-6.79,10.85-10.19,19.39-10.19c6.21,0,11.45,1.95,15.72,5.84c4.27,3.89,6.4,9.69,6.4,17.4 v39.64h-16.03v-36.29c0-3.48-0.89-6.28-2.67-8.39c-1.78-2.11-4.49-3.17-8.14-3.17c-3.4,0-6.13,1.16-8.2,3.48 c-2.07,2.32-3.11,5.18-3.11,8.58v35.79h-16.4v-36.29c0-3.48-0.91-6.28-2.73-8.39c-1.82-2.11-4.52-3.17-8.08-3.17 c-3.48,0-6.26,1.14-8.33,3.42c-2.07,2.28-3.11,5.16-3.11,8.64V162.52z"></path> </g> </g> </svg> 